<svg xmlns="http://www.w3.org/2000/svg" xmlns:xlink="http://www.w3.org/1999/xlink" width="1080" zoomAndPan="magnify" viewBox="0 0 810 809.999993" height="1080" preserveAspectRatio="xMidYMid meet" version="1.0"><defs><filter x="0%" y="0%" width="100%" height="100%" id="6f5b33e4dd"><feColorMatrix values="0 0 0 0 1 0 0 0 0 1 0 0 0 0 1 0 0 0 1 0" color-interpolation-filters="sRGB"/></filter><mask id="9f4fbc00e7"><g filter="url(#6f5b33e4dd)"><rect x="-81" width="972" fill="#000000" y="-80.999999" height="971.999992" fill-opacity="0.8"/></g></mask><clipPath id="159867ae5a"><path d="M 51 0 L 55 0 L 55 810 L 51 810 Z M 51 0 " clip-rule="nonzero"/></clipPath><clipPath id="7be865a703"><path d="M 121 0 L 125 0 L 125 810 L 121 810 Z M 121 0 " clip-rule="nonzero"/></clipPath><clipPath id="c6e68b5669"><path d="M 191 0 L 195 0 L 195 810 L 191 810 Z M 191 0 " clip-rule="nonzero"/></clipPath><clipPath id="b2b241f7ef"><path d="M 262 0 L 266 0 L 266 810 L 262 810 Z M 262 0 " clip-rule="nonzero"/></clipPath><clipPath id="662cad2092"><path d="M 332 0 L 336 0 L 336 810 L 332 810 Z M 332 0 " clip-rule="nonzero"/></clipPath><clipPath id="1b82130a9d"><path d="M 403 0 L 407 0 L 407 810 L 403 810 Z M 403 0 " clip-rule="nonzero"/></clipPath><clipPath id="b8769af9db"><path d="M 473 0 L 477 0 L 477 810 L 473 810 Z M 473 0 " clip-rule="nonzero"/></clipPath><clipPath id="8b415b180c"><path d="M 544 0 L 548 0 L 548 810 L 544 810 Z M 544 0 " clip-rule="nonzero"/></clipPath><clipPath id="9586896c18"><path d="M 614 0 L 618 0 L 618 810 L 614 810 Z M 614 0 " clip-rule="nonzero"/></clipPath><clipPath id="a6facf1632"><path d="M 685 0 L 689 0 L 689 810 L 685 810 Z M 685 0 " clip-rule="nonzero"/></clipPath><clipPath id="89eb518773"><path d="M 755 0 L 759 0 L 759 810 L 755 810 Z M 755 0 " clip-rule="nonzero"/></clipPath><clipPath id="01814ee051"><path d="M 0 51 L 810 51 L 810 55 L 0 55 Z M 0 51 " clip-rule="nonzero"/></clipPath><clipPath id="1f4c64e61b"><path d="M 0 121 L 810 121 L 810 125 L 0 125 Z M 0 121 " clip-rule="nonzero"/></clipPath><clipPath id="ac7bae8f46"><path d="M 0 191 L 810 191 L 810 195 L 0 195 Z M 0 191 " clip-rule="nonzero"/></clipPath><clipPath id="c3d0f84198"><path d="M 0 262 L 810 262 L 810 266 L 0 266 Z M 0 262 " clip-rule="nonzero"/></clipPath><clipPath id="71ec910b91"><path d="M 0 332 L 810 332 L 810 336 L 0 336 Z M 0 332 " clip-rule="nonzero"/></clipPath><clipPath id="6accc400f0"><path d="M 0 403 L 810 403 L 810 407 L 0 407 Z M 0 403 " clip-rule="nonzero"/></clipPath><clipPath id="686c7645c0"><path d="M 0 473 L 810 473 L 810 477 L 0 477 Z M 0 473 " clip-rule="nonzero"/></clipPath><clipPath id="5ba8568769"><path d="M 0 544 L 810 544 L 810 548 L 0 548 Z M 0 544 " clip-rule="nonzero"/></clipPath><clipPath id="ebfbe91dba"><path d="M 0 614 L 810 614 L 810 618 L 0 618 Z M 0 614 " clip-rule="nonzero"/></clipPath><clipPath id="aa8dde9a90"><path d="M 0 685 L 810 685 L 810 689 L 0 689 Z M 0 685 " clip-rule="nonzero"/></clipPath><clipPath id="67288a53d2"><path d="M 0 755 L 810 755 L 810 759 L 0 759 Z M 0 755 " clip-rule="nonzero"/></clipPath><clipPath id="e154c99bea"><rect x="0" width="810" y="0" height="810"/></clipPath><mask id="3f0a4f6dda"><g filter="url(#6f5b33e4dd)"><rect x="-81" width="972" fill="#000000" y="-80.999999" height="971.999992" fill-opacity="0.65"/></g></mask><clipPath id="475168960e"><path d="M 1 0 L 2.601562 0 L 2.601562 810 L 1 810 Z M 1 0 " clip-rule="nonzero"/></clipPath><clipPath id="32ecf3fd21"><rect x="0" width="3" y="0" height="810"/></clipPath><mask id="4a188e86d2"><g filter="url(#6f5b33e4dd)"><rect x="-81" width="972" fill="#000000" y="-80.999999" height="971.999992" fill-opacity="0.65"/></g></mask><clipPath id="754e03e492"><path d="M 0 0 L 1.921875 0 L 1.921875 810 L 0 810 Z M 0 0 " clip-rule="nonzero"/></clipPath><clipPath id="04f3179f94"><rect x="0" width="2" y="0" height="810"/></clipPath><mask id="748e060aae"><g filter="url(#6f5b33e4dd)"><rect x="-81" width="972" fill="#000000" y="-80.999999" height="971.999992" fill-opacity="0.65"/></g></mask><clipPath id="06659d7e0f"><path d="M 0.558594 0 L 2.238281 0 L 2.238281 810 L 0.558594 810 Z M 0.558594 0 " clip-rule="nonzero"/></clipPath><clipPath id="159abf2e0b"><rect x="0" width="3" y="0" height="810"/></clipPath><mask id="0073ab1cfd"><g filter="url(#6f5b33e4dd)"><rect x="-81" width="972" fill="#000000" y="-80.999999" height="971.999992" fill-opacity="0.65"/></g></mask><clipPath id="66c1516420"><path d="M 0.121094 0 L 1.800781 0 L 1.800781 810 L 0.121094 810 Z M 0.121094 0 " clip-rule="nonzero"/></clipPath><clipPath id="090e94b35a"><rect x="0" width="2" y="0" height="810"/></clipPath><mask id="864efce7bd"><g filter="url(#6f5b33e4dd)"><rect x="-81" width="972" fill="#000000" y="-80.999999" height="971.999992" fill-opacity="0.65"/></g></mask><clipPath id="19c646419b"><path d="M 0.679688 0 L 2.359375 0 L 2.359375 810 L 0.679688 810 Z M 0.679688 0 " clip-rule="nonzero"/></clipPath><clipPath id="ea98867bc1"><rect x="0" width="3" y="0" height="810"/></clipPath><mask id="e3e48ea1dc"><g filter="url(#6f5b33e4dd)"><rect x="-81" width="972" fill="#000000" y="-80.999999" height="971.999992" fill-opacity="0.65"/></g></mask><clipPath id="51a2e48261"><path d="M 0 0 L 1.921875 0 L 1.921875 810 L 0 810 Z M 0 0 " clip-rule="nonzero"/></clipPath><clipPath id="a4567761af"><rect x="0" width="2" y="0" height="810"/></clipPath><mask id="c56b996d42"><g filter="url(#6f5b33e4dd)"><rect x="-81" width="972" fill="#000000" y="-80.999999" height="971.999992" fill-opacity="0.65"/></g></mask><clipPath id="da0605d251"><path d="M 0.558594 0 L 2.238281 0 L 2.238281 810 L 0.558594 810 Z M 0.558594 0 " clip-rule="nonzero"/></clipPath><clipPath id="e0b6f3fff0"><rect x="0" width="3" y="0" height="810"/></clipPath><mask id="967081fe94"><g filter="url(#6f5b33e4dd)"><rect x="-81" width="972" fill="#000000" y="-80.999999" height="971.999992" fill-opacity="0.65"/></g></mask><clipPath id="89ac5b3996"><path d="M 0.121094 0 L 1.800781 0 L 1.800781 810 L 0.121094 810 Z M 0.121094 0 " clip-rule="nonzero"/></clipPath><clipPath id="16a6709702"><rect x="0" width="2" y="0" height="810"/></clipPath><mask id="6b62c34e75"><g filter="url(#6f5b33e4dd)"><rect x="-81" width="972" fill="#000000" y="-80.999999" height="971.999992" fill-opacity="0.65"/></g></mask><clipPath id="e3733b8ce5"><path d="M 0.679688 0 L 2.359375 0 L 2.359375 810 L 0.679688 810 Z M 0.679688 0 " clip-rule="nonzero"/></clipPath><clipPath id="38ddf9cee7"><rect x="0" width="3" y="0" height="810"/></clipPath><mask id="9f4c253844"><g filter="url(#6f5b33e4dd)"><rect x="-81" width="972" fill="#000000" y="-80.999999" height="971.999992" fill-opacity="0.65"/></g></mask><clipPath id="ae7d4d9975"><path d="M 0 0 L 1.921875 0 L 1.921875 810 L 0 810 Z M 0 0 " clip-rule="nonzero"/></clipPath><clipPath id="66534b18eb"><rect x="0" width="2" y="0" height="810"/></clipPath><mask id="fbca78381b"><g filter="url(#6f5b33e4dd)"><rect x="-81" width="972" fill="#000000" y="-80.999999" height="971.999992" fill-opacity="0.65"/></g></mask><clipPath id="b2ec559270"><path d="M 0.558594 0 L 2.238281 0 L 2.238281 810 L 0.558594 810 Z M 0.558594 0 " clip-rule="nonzero"/></clipPath><clipPath id="604df50125"><rect x="0" width="3" y="0" height="810"/></clipPath><mask id="4cb7ade5b9"><g filter="url(#6f5b33e4dd)"><rect x="-81" width="972" fill="#000000" y="-80.999999" height="971.999992" fill-opacity="0.65"/></g></mask><clipPath id="faa47ddec9"><path d="M 0 0.160156 L 810 0.160156 L 810 2 L 0 2 Z M 0 0.160156 " clip-rule="nonzero"/></clipPath><clipPath id="a62216c554"><rect x="0" width="810" y="0" height="3"/></clipPath><mask id="2b05d920e3"><g filter="url(#6f5b33e4dd)"><rect x="-81" width="972" fill="#000000" y="-80.999999" height="971.999992" fill-opacity="0.65"/></g></mask><clipPath id="fb589fa382"><path d="M 0 0.71875 L 810 0.71875 L 810 2.398438 L 0 2.398438 Z M 0 0.71875 " clip-rule="nonzero"/></clipPath><clipPath id="eb9d7f90ee"><rect x="0" width="810" y="0" height="3"/></clipPath><mask id="18d2fa34bc"><g filter="url(#6f5b33e4dd)"><rect x="-81" width="972" fill="#000000" y="-80.999999" height="971.999992" fill-opacity="0.65"/></g></mask><clipPath id="bc37a5e48e"><path d="M 0 0.28125 L 810 0.28125 L 810 1.960938 L 0 1.960938 Z M 0 0.28125 " clip-rule="nonzero"/></clipPath><clipPath id="f65e741b05"><rect x="0" width="810" y="0" height="2"/></clipPath><mask id="e64638f87f"><g filter="url(#6f5b33e4dd)"><rect x="-81" width="972" fill="#000000" y="-80.999999" height="971.999992" fill-opacity="0.65"/></g></mask><clipPath id="9f2f6d7970"><path d="M 0 0.839844 L 810 0.839844 L 810 2.519531 L 0 2.519531 Z M 0 0.839844 " clip-rule="nonzero"/></clipPath><clipPath id="e66de8fca1"><rect x="0" width="810" y="0" height="3"/></clipPath><mask id="d85957d09c"><g filter="url(#6f5b33e4dd)"><rect x="-81" width="972" fill="#000000" y="-80.999999" height="971.999992" fill-opacity="0.65"/></g></mask><clipPath id="c8d4016c32"><path d="M 0 0.160156 L 810 0.160156 L 810 2 L 0 2 Z M 0 0.160156 " clip-rule="nonzero"/></clipPath><clipPath id="00c833acbd"><rect x="0" width="810" y="0" height="3"/></clipPath><mask id="e8dbeac3e9"><g filter="url(#6f5b33e4dd)"><rect x="-81" width="972" fill="#000000" y="-80.999999" height="971.999992" fill-opacity="0.65"/></g></mask><clipPath id="b52ae0aaec"><path d="M 0 0.71875 L 810 0.71875 L 810 2.398438 L 0 2.398438 Z M 0 0.71875 " clip-rule="nonzero"/></clipPath><clipPath id="368027d839"><rect x="0" width="810" y="0" height="3"/></clipPath><mask id="0429d7185a"><g filter="url(#6f5b33e4dd)"><rect x="-81" width="972" fill="#000000" y="-80.999999" height="971.999992" fill-opacity="0.65"/></g></mask><clipPath id="b480d1fdb7"><path d="M 0 0.28125 L 810 0.28125 L 810 1.960938 L 0 1.960938 Z M 0 0.28125 " clip-rule="nonzero"/></clipPath><clipPath id="273aff66d0"><rect x="0" width="810" y="0" height="2"/></clipPath><mask id="efcdf829ee"><g filter="url(#6f5b33e4dd)"><rect x="-81" width="972" fill="#000000" y="-80.999999" height="971.999992" fill-opacity="0.65"/></g></mask><clipPath id="6d1d0f7143"><path d="M 0 0.839844 L 810 0.839844 L 810 2.519531 L 0 2.519531 Z M 0 0.839844 " clip-rule="nonzero"/></clipPath><clipPath id="2a099bddf3"><rect x="0" width="810" y="0" height="3"/></clipPath><mask id="572861bf16"><g filter="url(#6f5b33e4dd)"><rect x="-81" width="972" fill="#000000" y="-80.999999" height="971.999992" fill-opacity="0.65"/></g></mask><clipPath id="8362888891"><path d="M 0 0.160156 L 810 0.160156 L 810 2 L 0 2 Z M 0 0.160156 " clip-rule="nonzero"/></clipPath><clipPath id="e3b8ec17b6"><rect x="0" width="810" y="0" height="3"/></clipPath><mask id="161074363d"><g filter="url(#6f5b33e4dd)"><rect x="-81" width="972" fill="#000000" y="-80.999999" height="971.999992" fill-opacity="0.65"/></g></mask><clipPath id="96091d514f"><path d="M 0 0.71875 L 810 0.71875 L 810 2.398438 L 0 2.398438 Z M 0 0.71875 " clip-rule="nonzero"/></clipPath><clipPath id="4edfba787a"><rect x="0" width="810" y="0" height="3"/></clipPath></defs><rect x="-81" width="972" fill="#ffffff" y="-80.999999" height="971.999992" fill-opacity="1"/><rect x="-81" width="972" fill="#6700fa" y="-80.999999" height="971.999992" fill-opacity="1"/><g mask="url(#9f4fbc00e7)"><g transform="matrix(1, 0, 0, 1, 0, 0.000000000000039746)"><g clip-path="url(#e154c99bea)"><g clip-path="url(#159867ae5a)"><path stroke-linecap="butt" transform="matrix(0, 0.75, -0.75, 0, 54.173079, 0.00002)" fill="none" stroke-linejoin="miter" d="M -0.0000266667 2.001606 L 1080.000028 2.001606 " stroke="#ffffff" stroke-width="4" stroke-opacity="1" stroke-miterlimit="4"/></g><g clip-path="url(#7be865a703)"><path stroke-linecap="butt" transform="matrix(0, 0.75, -0.75, 0, 124.326912, 0.00002)" fill="none" stroke-linejoin="miter" d="M -0.0000266667 1.998382 L 1080.000028 1.998382 " stroke="#ffffff" stroke-width="4" stroke-opacity="1" stroke-miterlimit="4"/></g><g clip-path="url(#c6e68b5669)"><path stroke-linecap="butt" transform="matrix(0, 0.75, -0.75, 0, 194.826908, 0.00002)" fill="none" stroke-linejoin="miter" d="M -0.0000266667 1.998378 L 1080.000028 1.998378 " stroke="#ffffff" stroke-width="4" stroke-opacity="1" stroke-miterlimit="4"/></g><g clip-path="url(#b2b241f7ef)"><path stroke-linecap="butt" transform="matrix(0, 0.75, -0.75, 0, 265.326905, 0.00002)" fill="none" stroke-linejoin="miter" d="M -0.0000266667 1.998373 L 1080.000028 1.998373 " stroke="#ffffff" stroke-width="4" stroke-opacity="1" stroke-miterlimit="4"/></g><g clip-path="url(#662cad2092)"><path stroke-linecap="butt" transform="matrix(0, 0.75, -0.75, 0, 335.826901, 0.00002)" fill="none" stroke-linejoin="miter" d="M -0.0000266667 1.998368 L 1080.000028 1.998368 " stroke="#ffffff" stroke-width="4" stroke-opacity="1" stroke-miterlimit="4"/></g><g clip-path="url(#1b82130a9d)"><path stroke-linecap="butt" transform="matrix(0, 0.75, -0.75, 0, 406.326895, 0.00002)" fill="none" stroke-linejoin="miter" d="M -0.0000266667 1.99836 L 1080.000028 1.99836 " stroke="#ffffff" stroke-width="4" stroke-opacity="1" stroke-miterlimit="4"/></g><g clip-path="url(#b8769af9db)"><path stroke-linecap="butt" transform="matrix(0, 0.75, -0.75, 0, 476.826892, 0.00002)" fill="none" stroke-linejoin="miter" d="M -0.0000266667 1.998355 L 1080.000028 1.998355 " stroke="#ffffff" stroke-width="4" stroke-opacity="1" stroke-miterlimit="4"/></g><g clip-path="url(#8b415b180c)"><path stroke-linecap="butt" transform="matrix(0, 0.75, -0.75, 0, 547.326888, 0.00002)" fill="none" stroke-linejoin="miter" d="M -0.0000266667 1.998351 L 1080.000028 1.998351 " stroke="#ffffff" stroke-width="4" stroke-opacity="1" stroke-miterlimit="4"/></g><g clip-path="url(#9586896c18)"><path stroke-linecap="butt" transform="matrix(0, 0.75, -0.75, 0, 617.826884, 0.00002)" fill="none" stroke-linejoin="miter" d="M -0.0000266667 1.998346 L 1080.000028 1.998346 " stroke="#ffffff" stroke-width="4" stroke-opacity="1" stroke-miterlimit="4"/></g><g clip-path="url(#a6facf1632)"><path stroke-linecap="butt" transform="matrix(0, 0.75, -0.75, 0, 688.326881, 0.00002)" fill="none" stroke-linejoin="miter" d="M -0.0000266667 1.998341 L 1080.000028 1.998341 " stroke="#ffffff" stroke-width="4" stroke-opacity="1" stroke-miterlimit="4"/></g><g clip-path="url(#89eb518773)"><path stroke-linecap="butt" transform="matrix(0, 0.75, -0.75, 0, 758.826877, 0.00002)" fill="none" stroke-linejoin="miter" d="M -0.0000266667 1.998337 L 1080.000028 1.998337 " stroke="#ffffff" stroke-width="4" stroke-opacity="1" stroke-miterlimit="4"/></g><g clip-path="url(#01814ee051)"><path stroke-linecap="butt" transform="matrix(-0.75, 0, 0, -0.75, 809.999963, 54.173093)" fill="none" stroke-linejoin="miter" d="M -0.0000496667 2.001624 L 1080.000005 2.001624 " stroke="#ffffff" stroke-width="4" stroke-opacity="1" stroke-miterlimit="4"/></g><g clip-path="url(#1f4c64e61b)"><path stroke-linecap="butt" transform="matrix(-0.75, 0, 0, -0.75, 809.999963, 124.326928)" fill="none" stroke-linejoin="miter" d="M -0.0000496667 1.998404 L 1080.000005 1.998404 " stroke="#ffffff" stroke-width="4" stroke-opacity="1" stroke-miterlimit="4"/></g><g clip-path="url(#ac7bae8f46)"><path stroke-linecap="butt" transform="matrix(-0.75, 0, 0, -0.75, 809.999963, 194.826925)" fill="none" stroke-linejoin="miter" d="M -0.0000496667 1.9984 L 1080.000005 1.9984 " stroke="#ffffff" stroke-width="4" stroke-opacity="1" stroke-miterlimit="4"/></g><g clip-path="url(#c3d0f84198)"><path stroke-linecap="butt" transform="matrix(-0.75, 0, 0, -0.75, 809.999963, 265.326921)" fill="none" stroke-linejoin="miter" d="M -0.0000496667 1.998395 L 1080.000005 1.998395 " stroke="#ffffff" stroke-width="4" stroke-opacity="1" stroke-miterlimit="4"/></g><g clip-path="url(#71ec910b91)"><path stroke-linecap="butt" transform="matrix(-0.75, 0, 0, -0.75, 809.999963, 335.826918)" fill="none" stroke-linejoin="miter" d="M -0.0000496667 1.99839 L 1080.000005 1.99839 " stroke="#ffffff" stroke-width="4" stroke-opacity="1" stroke-miterlimit="4"/></g><g clip-path="url(#6accc400f0)"><path stroke-linecap="butt" transform="matrix(-0.75, 0, 0, -0.75, 809.999963, 406.326912)" fill="none" stroke-linejoin="miter" d="M -0.0000496667 1.998382 L 1080.000005 1.998382 " stroke="#ffffff" stroke-width="4" stroke-opacity="1" stroke-miterlimit="4"/></g><g clip-path="url(#686c7645c0)"><path stroke-linecap="butt" transform="matrix(-0.75, 0, 0, -0.75, 809.999963, 476.826908)" fill="none" stroke-linejoin="miter" d="M -0.0000496667 1.998377 L 1080.000005 1.998377 " stroke="#ffffff" stroke-width="4" stroke-opacity="1" stroke-miterlimit="4"/></g><g clip-path="url(#5ba8568769)"><path stroke-linecap="butt" transform="matrix(-0.75, 0, 0, -0.75, 809.999963, 547.326904)" fill="none" stroke-linejoin="miter" d="M -0.0000496667 1.998373 L 1080.000005 1.998373 " stroke="#ffffff" stroke-width="4" stroke-opacity="1" stroke-miterlimit="4"/></g><g clip-path="url(#ebfbe91dba)"><path stroke-linecap="butt" transform="matrix(-0.75, 0, 0, -0.75, 809.999963, 617.826901)" fill="none" stroke-linejoin="miter" d="M -0.0000496667 1.998368 L 1080.000005 1.998368 " stroke="#ffffff" stroke-width="4" stroke-opacity="1" stroke-miterlimit="4"/></g><g clip-path="url(#aa8dde9a90)"><path stroke-linecap="butt" transform="matrix(-0.75, 0, 0, -0.75, 809.999963, 688.326897)" fill="none" stroke-linejoin="miter" d="M -0.0000496667 1.998363 L 1080.000005 1.998363 " stroke="#ffffff" stroke-width="4" stroke-opacity="1" stroke-miterlimit="4"/></g><g clip-path="url(#67288a53d2)"><path stroke-linecap="butt" transform="matrix(-0.75, 0, 0, -0.75, 809.999963, 758.826894)" fill="none" stroke-linejoin="miter" d="M -0.0000496667 1.998359 L 1080.000005 1.998359 " stroke="#ffffff" stroke-width="4" stroke-opacity="1" stroke-miterlimit="4"/></g></g></g></g><g mask="url(#3f0a4f6dda)"><g transform="matrix(1, 0, 0, 1, 85, 0.000000000000039746)"><g clip-path="url(#32ecf3fd21)"><g clip-path="url(#475168960e)"><path stroke-linecap="butt" transform="matrix(0, 0.75, -0.75, 0, 2.578188, -145.035119)" fill="none" stroke-linejoin="miter" d="M -0.0000495287 1.000083 L 1371.046894 1.000083 " stroke="#ffffff" stroke-width="2" stroke-opacity="1" stroke-miterlimit="4"/></g></g></g></g><g mask="url(#4a188e86d2)"><g transform="matrix(1, 0, 0, 1, 156, 0.000000000000039746)"><g clip-path="url(#04f3179f94)"><g clip-path="url(#754e03e492)"><path stroke-linecap="butt" transform="matrix(0, 0.75, -0.75, 0, 1.732027, -145.035119)" fill="none" stroke-linejoin="miter" d="M -0.0000495287 1.002077 L 1371.046894 1.002077 " stroke="#ffffff" stroke-width="2" stroke-opacity="1" stroke-miterlimit="4"/></g></g></g></g><g mask="url(#748e060aae)"><g transform="matrix(1, 0, 0, 1, 226, 0.000000000000039746)"><g clip-path="url(#159abf2e0b)"><g clip-path="url(#06659d7e0f)"><path stroke-linecap="butt" transform="matrix(0, 0.75, -0.75, 0, 2.232038, -145.035119)" fill="none" stroke-linejoin="miter" d="M -0.0000495287 1.002092 L 1371.046894 1.002092 " stroke="#ffffff" stroke-width="2" stroke-opacity="1" stroke-miterlimit="4"/></g></g></g></g><g mask="url(#0073ab1cfd)"><g transform="matrix(1, 0, 0, 1, 297, 0.000000000000039746)"><g clip-path="url(#090e94b35a)"><g clip-path="url(#66c1516420)"><path stroke-linecap="butt" transform="matrix(0, 0.75, -0.75, 0, 1.73202, -145.035119)" fill="none" stroke-linejoin="miter" d="M -0.0000495287 1.002068 L 1371.046894 1.002068 " stroke="#ffffff" stroke-width="2" stroke-opacity="1" stroke-miterlimit="4"/></g></g></g></g><g mask="url(#864efce7bd)"><g transform="matrix(1, 0, 0, 1, 367, 0.000000000000039746)"><g clip-path="url(#ea98867bc1)"><g clip-path="url(#19c646419b)"><path stroke-linecap="butt" transform="matrix(0, 0.75, -0.75, 0, 2.232016, -145.035119)" fill="none" stroke-linejoin="miter" d="M -0.0000495287 1.002063 L 1371.046894 1.002063 " stroke="#ffffff" stroke-width="2" stroke-opacity="1" stroke-miterlimit="4"/></g></g></g></g><g mask="url(#e3e48ea1dc)"><g transform="matrix(1, 0, 0, 1, 438, 0.000000000000039746)"><g clip-path="url(#a4567761af)"><g clip-path="url(#51a2e48261)"><path stroke-linecap="butt" transform="matrix(0, 0.75, -0.75, 0, 1.732013, -145.035119)" fill="none" stroke-linejoin="miter" d="M -0.0000495287 1.002059 L 1371.046894 1.002059 " stroke="#ffffff" stroke-width="2" stroke-opacity="1" stroke-miterlimit="4"/></g></g></g></g><g mask="url(#c56b996d42)"><g transform="matrix(1, 0, 0, 1, 508, 0.000000000000039746)"><g clip-path="url(#e0b6f3fff0)"><g clip-path="url(#da0605d251)"><path stroke-linecap="butt" transform="matrix(0, 0.75, -0.75, 0, 2.232009, -145.035119)" fill="none" stroke-linejoin="miter" d="M -0.0000495287 1.002054 L 1371.046894 1.002054 " stroke="#ffffff" stroke-width="2" stroke-opacity="1" stroke-miterlimit="4"/></g></g></g></g><g mask="url(#967081fe94)"><g transform="matrix(1, 0, 0, 1, 579, 0.000000000000039746)"><g clip-path="url(#16a6709702)"><g clip-path="url(#89ac5b3996)"><path stroke-linecap="butt" transform="matrix(0, 0.75, -0.75, 0, 1.732006, -145.035119)" fill="none" stroke-linejoin="miter" d="M -0.0000495287 1.002049 L 1371.046894 1.002049 " stroke="#ffffff" stroke-width="2" stroke-opacity="1" stroke-miterlimit="4"/></g></g></g></g><g mask="url(#6b62c34e75)"><g transform="matrix(1, 0, 0, 1, 649, 0.000000000000039746)"><g clip-path="url(#38ddf9cee7)"><g clip-path="url(#e3733b8ce5)"><path stroke-linecap="butt" transform="matrix(0, 0.75, -0.75, 0, 2.232002, -145.035119)" fill="none" stroke-linejoin="miter" d="M -0.0000495287 1.002044 L 1371.046894 1.002044 " stroke="#ffffff" stroke-width="2" stroke-opacity="1" stroke-miterlimit="4"/></g></g></g></g><g mask="url(#9f4c253844)"><g transform="matrix(1, 0, 0, 1, 720, 0.000000000000039746)"><g clip-path="url(#66534b18eb)"><g clip-path="url(#ae7d4d9975)"><path stroke-linecap="butt" transform="matrix(0, 0.75, -0.75, 0, 1.731998, -145.035119)" fill="none" stroke-linejoin="miter" d="M -0.0000495287 1.00204 L 1371.046894 1.00204 " stroke="#ffffff" stroke-width="2" stroke-opacity="1" stroke-miterlimit="4"/></g></g></g></g><g mask="url(#fbca78381b)"><g transform="matrix(1, 0, 0, 1, 790, 0.000000000000039746)"><g clip-path="url(#604df50125)"><g clip-path="url(#b2ec559270)"><path stroke-linecap="butt" transform="matrix(0, 0.75, -0.75, 0, 2.231936, -145.035119)" fill="none" stroke-linejoin="miter" d="M -0.0000495287 1.001957 L 1371.046894 1.001957 " stroke="#ffffff" stroke-width="2" stroke-opacity="1" stroke-miterlimit="4"/></g></g></g></g><g mask="url(#4cb7ade5b9)"><g transform="matrix(1, 0, 0, 1, 0, 86)"><g clip-path="url(#a62216c554)"><g clip-path="url(#faa47ddec9)"><path stroke-linecap="butt" transform="matrix(-0.75, 0, 0, -0.75, 942.097276, 1.857477)" fill="none" stroke-linejoin="miter" d="M -0.000506861 0.997469 L 1341.197477 0.997469 " stroke="#ffffff" stroke-width="2" stroke-opacity="1" stroke-miterlimit="4"/></g></g></g></g><g mask="url(#2b05d920e3)"><g transform="matrix(1, 0, 0, 1, 0, 156)"><g clip-path="url(#eb9d7f90ee)"><g clip-path="url(#fb589fa382)"><path stroke-linecap="butt" transform="matrix(-0.75, 0, 0, -0.75, 942.097276, 2.357473)" fill="none" stroke-linejoin="miter" d="M -0.000506861 0.997464 L 1341.197477 0.997464 " stroke="#ffffff" stroke-width="2" stroke-opacity="1" stroke-miterlimit="4"/></g></g></g></g><g mask="url(#18d2fa34bc)"><g transform="matrix(1, 0, 0, 1, 0, 227)"><g clip-path="url(#f65e741b05)"><g clip-path="url(#bc37a5e48e)"><path stroke-linecap="butt" transform="matrix(-0.75, 0, 0, -0.75, 942.097276, 1.857469)" fill="none" stroke-linejoin="miter" d="M -0.000506861 0.997459 L 1341.197477 0.997459 " stroke="#ffffff" stroke-width="2" stroke-opacity="1" stroke-miterlimit="4"/></g></g></g></g><g mask="url(#e64638f87f)"><g transform="matrix(1, 0, 0, 1, 0, 297)"><g clip-path="url(#e66de8fca1)"><g clip-path="url(#9f2f6d7970)"><path stroke-linecap="butt" transform="matrix(-0.75, 0, 0, -0.75, 942.097276, 2.357437)" fill="none" stroke-linejoin="miter" d="M -0.000506861 0.997415 L 1341.197477 0.997415 " stroke="#ffffff" stroke-width="2" stroke-opacity="1" stroke-miterlimit="4"/></g></g></g></g><g mask="url(#d85957d09c)"><g transform="matrix(1, 0, 0, 1, 0, 368)"><g clip-path="url(#00c833acbd)"><g clip-path="url(#c8d4016c32)"><path stroke-linecap="butt" transform="matrix(-0.75, 0, 0, -0.75, 942.097276, 1.857433)" fill="none" stroke-linejoin="miter" d="M -0.000506861 0.997411 L 1341.197477 0.997411 " stroke="#ffffff" stroke-width="2" stroke-opacity="1" stroke-miterlimit="4"/></g></g></g></g><g mask="url(#e8dbeac3e9)"><g transform="matrix(1, 0, 0, 1, 0, 438)"><g clip-path="url(#368027d839)"><g clip-path="url(#b52ae0aaec)"><path stroke-linecap="butt" transform="matrix(-0.75, 0, 0, -0.75, 942.097276, 2.357429)" fill="none" stroke-linejoin="miter" d="M -0.000506861 0.997406 L 1341.197477 0.997406 " stroke="#ffffff" stroke-width="2" stroke-opacity="1" stroke-miterlimit="4"/></g></g></g></g><g mask="url(#0429d7185a)"><g transform="matrix(1, 0, 0, 1, 0, 509)"><g clip-path="url(#273aff66d0)"><g clip-path="url(#b480d1fdb7)"><path stroke-linecap="butt" transform="matrix(-0.75, 0, 0, -0.75, 942.097276, 1.857455)" fill="none" stroke-linejoin="miter" d="M -0.000506861 0.99744 L 1341.197477 0.99744 " stroke="#ffffff" stroke-width="2" stroke-opacity="1" stroke-miterlimit="4"/></g></g></g></g><g mask="url(#efcdf829ee)"><g transform="matrix(1, 0, 0, 1, 0, 579)"><g clip-path="url(#2a099bddf3)"><g clip-path="url(#6d1d0f7143)"><path stroke-linecap="butt" transform="matrix(-0.75, 0, 0, -0.75, 942.097276, 2.357452)" fill="none" stroke-linejoin="miter" d="M -0.000506861 0.997436 L 1341.197477 0.997436 " stroke="#ffffff" stroke-width="2" stroke-opacity="1" stroke-miterlimit="4"/></g></g></g></g><g mask="url(#572861bf16)"><g transform="matrix(1, 0, 0, 1, 0, 650)"><g clip-path="url(#e3b8ec17b6)"><g clip-path="url(#8362888891)"><path stroke-linecap="butt" transform="matrix(-0.75, 0, 0, -0.75, 942.097276, 1.857448)" fill="none" stroke-linejoin="miter" d="M -0.000506861 0.997431 L 1341.197477 0.997431 " stroke="#ffffff" stroke-width="2" stroke-opacity="1" stroke-miterlimit="4"/></g></g></g></g><g mask="url(#161074363d)"><g transform="matrix(1, 0, 0, 1, 0, 720)"><g clip-path="url(#4edfba787a)"><g clip-path="url(#96091d514f)"><path stroke-linecap="butt" transform="matrix(-0.75, 0, 0, -0.75, 942.097276, 2.357445)" fill="none" stroke-linejoin="miter" d="M -0.000506861 0.997426 L 1341.197477 0.997426 " stroke="#ffffff" stroke-width="2" stroke-opacity="1" stroke-miterlimit="4"/></g></g></g></g></svg>